# Alias OBJ Model File
# Exported from SketchUp, (c) 2000-2012 Trimble Navigation Limited
# File units = meters

mtllib battleship_right_final.mtl

g Mesh1 Model

usemtl Chris_Shoe
v -0.350109 0 -0.360285
vt 13.7838 14.1844
vn 0 -1 -0
v 0.349891 0 -0.360285
vt -13.7752 14.1844
v 0.349891 0 0.369715
vt -13.7752 -14.5557
v -0.350109 0 0.369715
vt 13.7838 -14.5557
f 1/1/1 2/2/1 3/3/1 4/4/1 

vt -13.7752 0
vn 0 0 -1
vt 13.7838 0
v -0.350109 1.75 -0.360285
vt 13.7838 68.8976
v 0.349891 1.75 -0.360285
vt -13.7752 68.8976
f 2/5/2 1/6/2 5/7/2 6/8/2 

usemtl battleship_right_side_for_web
vt 0.00105415 0.0553844
vn -1 7.75923e-18 -6.54756e-17
vt 0.609387 0.0553844
v -0.350109 0.836054 0.654371
vt 0.8466 0.229562
v -0.350109 0.90884 0.369715
vt 0.609387 0.244726
v -0.350109 1.64449 0.369715
vt 0.609387 0.397986
v -0.350109 1.75 0.369715
vt 0.609387 0.419968
vt 0.00105415 0.419968
f 1/9/3 4/10/3 7/11/3 8/12/3 9/13/3 10/14/3 5/15/3 

usemtl battleship_front_for_web
vt 0.994891 -0.0836807
vn 1.61944e-17 -0.322306 0.946636
v 0.349891 0.836054 0.654371
vt 0.994891 0.547166
vt -0.00510852 0.547166
vt -0.00510852 -0.0836807
f 3/16/4 11/17/4 7/18/4 4/19/4 

usemtl Chris_Shoe
vt -14.5557 1.06885e-16
vn 1 -7.75923e-18 6.54756e-17
vt 14.1844 1.06885e-16
vt 14.1844 68.8976
v 0.349891 1.75 0.369715
vt -14.5557 68.8976
v 0.349891 1.64449 0.369715
vt -14.5557 64.7436
v 0.349891 0.90884 0.369715
vt -14.5557 35.7811
vt -25.7626 32.9155
f 3/20/5 2/21/5 6/22/5 12/23/5 13/24/5 14/25/5 11/26/5 

vt 13.7752 14.1844
vn 0 1 -0
vt -13.7838 14.1844
vt -13.7838 -14.5557
vt 13.7752 -14.5557
f 6/27/6 5/28/6 10/29/6 12/30/6 

vt -13.7838 68.8976
vn 0 0 1
vt -13.7838 64.7436
v -0.296294 1.64449 0.369715
vt -11.6651 64.7436
v 0.291 1.64449 0.369715
vt 11.4567 64.7436
vt 13.7752 64.7436
vt 13.7752 68.8976
f 10/31/7 9/32/7 15/33/7 16/34/7 13/35/7 12/36/7 

vt -13.7838 35.7811
v -0.296294 0.90884 0.369715
vt -11.6651 35.7811
v -0.296294 0.993408 0.369715
vt -11.6651 39.1106
f 8/37/7 17/38/7 18/39/7 15/33/7 9/32/7 

vt -13.7838 -5.23807
vn -4.46383e-18 0.96883 0.247727
vt -13.7838 -16.8055
vt 13.7752 -16.8055
vt 13.7752 -5.23807
v 0.291 0.90884 0.369715
vt 11.4567 -5.23807
vt -11.6651 -5.23807
f 8/40/8 7/41/8 11/42/8 14/43/8 19/44/8 17/45/8 

v 0.291 0.993408 0.369715
vt 11.4567 39.1106
vt 11.4567 35.7811
vt 13.7752 35.7811
f 13/35/7 16/34/7 20/46/7 19/47/7 14/48/7 

vt 14.5557 39.1106
vn -1 0 -0
vt 14.5557 64.7436
v 0.291 1.64449 0.229715
vt 9.04391 64.7436
v 0.291 0.993408 0.299715
vt 11.7998 39.1106
f 20/49/9 16/50/9 21/51/9 22/52/9 

vt -11.4567 -14.5557
vt 11.6651 -14.5557
v -0.296294 1.64449 0.229715
vt 11.6651 -9.04391
vt -11.4567 -9.04391
f 16/53/1 15/54/1 23/55/1 21/56/1 

vn 1 0 -0
vt -14.5557 39.1106
v -0.296294 0.993408 0.299715
vt -11.7998 39.1106
vt -9.04391 64.7436
f 15/24/10 18/57/10 24/58/10 23/59/10 

vt -11.6651 -14.5557
vt 11.4567 -14.5557
vt 11.4567 -11.7998
vt -11.6651 -11.7998
f 18/60/6 20/61/6 22/62/6 24/63/6 

f 19/47/7 20/46/7 18/39/7 17/38/7 

usemtl Screen_Shot_2017_07_17_at_2_00_25_PM
vt -0.423277 3.22844
vn 0 0.106898 0.99427
vt -0.423277 1.91576
vt 0.415714 1.91576
vt 0.415714 3.22844
f 23/64/11 24/65/11 22/66/11 21/67/11 

